<svg width="288" height="47" viewBox="0 0 288 47" fill="none" xmlns="http://www.w3.org/2000/svg">
<path d="M17.3701 45.9951C6.02598 46.2072 1.85509 39.5985 2.31511 35.393C2.55732 33.1707 2.07923 31.2476 1.72586 30.1979C1.59662 29.7759 1.3282 28.7965 1.28391 28.2542C1.02815 25.3354 0.602467 17.2758 3.12759 12.5984C7.19997 5.056 13.2182 0.848633 21.7877 1.04203C28.3599 1.19036 33.1996 2.78731 37.2313 8.03943C39.694 11.2478 40.9087 13.7721 40.9069 17.7228C40.9051 20.2115 39.3163 23.8939 39.3163 23.8939C41.9507 22.5653 45.2079 23.3152 45.9255 26.7346C47.9039 35.7464 37.7618 37.5135 35.8883 37.7962C31.2944 43.1325 28.7142 45.7831 17.3701 45.9951Z" fill="#F8C9AD"/>
<path d="M39.3253 23.852C39.3253 23.852 40.8654 20.1691 40.9151 17.6809C40.9973 13.6369 39.7031 11.206 37.2403 7.9976C33.2077 2.74547 28.4178 1.0254 21.7959 1.0002C13.2245 0.967562 7.15391 4.98483 3.13667 12.5566C0.251117 17.9947 1.03631 25.2935 1.29298 28.2124M36.3212 27.1168C36.9493 25.5968 38.0664 24.487 39.3253 23.852L36.3212 27.1168ZM39.3253 23.852C41.9589 22.5235 45.2161 23.2734 45.9337 26.6928C47.9129 35.7046 37.77 37.4716 35.8974 37.7543C31.3026 43.0907 28.7232 45.7413 17.3782 45.9533C6.03415 46.1653 1.86416 39.5566 2.32327 35.3511C2.56639 33.1289 2.0874 31.2057 1.73493 30.1561L39.3253 23.852Z" stroke="#2B2B2B" stroke-linecap="round" stroke-linejoin="round"/>
<path d="M18.6155 34.2202C19.3791 33.683 18.667 33.2036 18.2187 33.1247C17.9385 33.0753 17.5038 33.054 17.5472 33.4074C17.5906 33.7608 17.5906 33.9375 18.6155 34.2202Z" fill="#F3BA8D"/>
<path d="M40.7388 28.9546C42.5482 27.8237 42.2463 27.2346 41.8694 27.0815C40.0673 27.4703 39.5016 29.2726 39.4663 30.3682C39.4311 31.4637 39.3606 31.5344 40.2083 31.9939C40.5969 29.5907 42.5057 30.2975 42.5057 30.0855C42.5057 29.8735 42.0466 29.5553 40.7388 28.9546Z" fill="#F3BA8D"/>
<path d="M18.686 31.8171L17.1667 33.4075C17.2725 33.7373 17.9015 34.397 19.5699 34.397" stroke="#2B2B2B" stroke-linecap="round" stroke-linejoin="round"/>
<path d="M16.4248 41.2178C18.5803 41.3474 21.9143 41.9075 24.8353 40.3696C25.8692 39.8255 27.1091 38.8028 27.2736 38.638L26.7088 37.7898C27.0387 38.3199 27.7192 39.4084 27.8041 39.5214" stroke="#2B2B2B" stroke-linecap="round" stroke-linejoin="round"/>
<path d="M3.49014 26.4099C7.81557 21.5754 13.4912 23.3825 15.7886 24.8903C16.3065 25.8327 17.1027 28.3608 16.142 30.9335C14.94 34.1495 11.0176 35.3511 7.23626 34.6089C3.45489 33.8668 3.38349 29.9793 3.49014 26.4099Z" fill="#F48E4C" stroke="#2B2B2B" stroke-linecap="round" stroke-linejoin="round"/>
<path d="M21.6051 23.8626C26.611 19.7361 31.9487 22.3788 33.9921 24.2161C34.3627 25.2259 34.7684 27.8451 33.43 30.2434C31.7571 33.2413 27.6974 33.8372 24.0714 32.533C20.4455 31.2288 20.9616 27.3752 21.6051 23.8626Z" fill="#F48E4C" stroke="#2B2B2B" stroke-linecap="round" stroke-linejoin="round"/>
<path d="M16.6011 27.8942C17.7678 27.9767 20.3119 28.0497 21.1606 27.6821" stroke="#2B2B2B"/>
<path d="M23.5647 18.6551C23.3188 18.6965 23.1525 18.9296 23.1941 19.1757C23.2348 19.4218 23.468 19.5878 23.7147 19.5464L23.5647 18.6551ZM31.2774 20.0281C31.5061 20.1269 31.7718 20.0212 31.8712 19.792C31.9697 19.5628 31.864 19.2969 31.6344 19.1981L31.2774 20.0281ZM23.7147 19.5464C24.4829 19.4173 25.7988 19.285 27.2204 19.3144C28.6483 19.3441 30.1369 19.5366 31.2774 20.0281L31.6344 19.1981C30.3366 18.6386 28.7116 18.4414 27.2385 18.4109C25.7581 18.3801 24.3853 18.5171 23.5647 18.6551L23.7147 19.5464Z" fill="#2B2B2B"/>
<path d="M5.06714 20.5329C6.58456 19.9892 10.2656 19.0528 12.8513 19.6567" stroke="#2B2B2B" stroke-linecap="round" stroke-linejoin="round"/>
<path d="M19.0432 43.1256C19.5032 42.8782 20.6338 42.6308 21.215 43.3025" stroke="#2B2B2B"/>
<path d="M39.8876 28.813C40.7019 29.0015 42.4137 29.5622 42.7535 30.2973M41.9048 27.2227C41.2849 27.3744 40.391 27.8595 39.8876 28.813L41.9048 27.2227ZM39.7494 31.9936C39.3391 30.6005 39.4927 29.5622 39.8876 28.813L39.7494 31.9936Z" stroke="#2B2B2B" stroke-linecap="round" stroke-linejoin="round"/>
<path fill-rule="evenodd" clip-rule="evenodd" d="M6.05493 31.4363L8.70568 26.2058L9.51184 26.6144L6.86109 31.8448L6.05493 31.4363ZM7.99894 31.4363L10.6497 26.2058L11.4558 26.6144L8.8051 31.8448L7.99894 31.4363ZM12.5937 26.2058L9.94294 31.4363L10.7491 31.8448L13.3999 26.6144L12.5937 26.2058Z" fill="#2B2B2B"/>
<path fill-rule="evenodd" clip-rule="evenodd" d="M24.0083 30.0932L26.6591 24.8628L27.4652 25.2714L24.8145 30.5018L24.0083 30.0932ZM25.9523 30.0932L28.6031 24.8628L29.4092 25.2714L26.7585 30.5018L25.9523 30.0932ZM30.5462 24.8628L27.8954 30.0932L28.7016 30.5018L31.3523 25.2714L30.5462 24.8628Z" fill="#2B2B2B"/>
<path d="M54.0449 9.08301H65.2041C67.4131 9.08301 69.0571 9.17822 70.1362 9.36865C71.228 9.54639 72.1992 9.92725 73.0498 10.5112C73.9131 11.0952 74.6304 11.876 75.2017 12.8535C75.7729 13.8184 76.0586 14.9038 76.0586 16.1099C76.0586 17.4175 75.7031 18.6172 74.9922 19.709C74.2939 20.8008 73.3418 21.6196 72.1357 22.1655C73.8369 22.6606 75.1445 23.5049 76.0586 24.6982C76.9727 25.8916 77.4297 27.2944 77.4297 28.9067C77.4297 30.1763 77.1313 31.4141 76.5347 32.6201C75.9507 33.8135 75.1445 34.772 74.1162 35.4956C73.1006 36.2065 71.8438 36.6445 70.3457 36.8096C69.4062 36.9111 67.1401 36.9746 63.5474 37H54.0449V9.08301ZM59.6816 13.7295V20.1851H63.376C65.5723 20.1851 66.937 20.1533 67.4702 20.0898C68.4351 19.9756 69.1904 19.6455 69.7363 19.0996C70.2949 18.541 70.5742 17.811 70.5742 16.9097C70.5742 16.0464 70.333 15.3481 69.8506 14.8149C69.3809 14.269 68.6763 13.939 67.7368 13.8247C67.1782 13.7612 65.5723 13.7295 62.9189 13.7295H59.6816ZM59.6816 24.8315V32.2964H64.8994C66.9307 32.2964 68.2192 32.2393 68.7651 32.125C69.603 31.9727 70.2822 31.6045 70.8027 31.0205C71.3359 30.4238 71.6025 29.6304 71.6025 28.6401C71.6025 27.8022 71.3994 27.0913 70.9932 26.5073C70.5869 25.9233 69.9966 25.498 69.2222 25.2314C68.4604 24.9648 66.7974 24.8315 64.2329 24.8315H59.6816ZM86.1704 22.9463L81.3145 22.0703C81.8604 20.1152 82.7998 18.668 84.1328 17.7285C85.4658 16.7891 87.4463 16.3193 90.0742 16.3193C92.4609 16.3193 94.2383 16.605 95.4062 17.1763C96.5742 17.7349 97.3931 18.4521 97.8628 19.3281C98.3452 20.1914 98.5864 21.7847 98.5864 24.1079L98.5293 30.354C98.5293 32.1313 98.6118 33.4453 98.7769 34.2959C98.9546 35.1338 99.2783 36.0352 99.748 37H94.4541C94.3145 36.6445 94.1431 36.1177 93.9399 35.4194C93.8511 35.1021 93.7876 34.8926 93.7495 34.791C92.8354 35.6797 91.8579 36.3462 90.8169 36.7905C89.7759 37.2349 88.665 37.457 87.4844 37.457C85.4023 37.457 83.7583 36.8921 82.5522 35.7622C81.3589 34.6323 80.7622 33.2041 80.7622 31.4775C80.7622 30.335 81.0352 29.3193 81.5811 28.4307C82.127 27.5293 82.8887 26.8438 83.8662 26.374C84.8564 25.8916 86.2783 25.4727 88.1318 25.1172C90.6328 24.6475 92.3657 24.2095 93.3306 23.8032V23.27C93.3306 22.2417 93.0767 21.5117 92.5688 21.0801C92.061 20.6357 91.1025 20.4136 89.6934 20.4136C88.7412 20.4136 87.9985 20.604 87.4653 20.9849C86.9321 21.353 86.5005 22.0068 86.1704 22.9463ZM93.3306 27.2881C92.645 27.5166 91.5596 27.7896 90.0742 28.1069C88.5889 28.4243 87.6177 28.7354 87.1606 29.04C86.4624 29.5352 86.1133 30.1636 86.1133 30.9253C86.1133 31.6743 86.3926 32.3218 86.9512 32.8677C87.5098 33.4136 88.2207 33.6865 89.084 33.6865C90.0488 33.6865 90.9692 33.3691 91.8452 32.7344C92.4927 32.252 92.918 31.6616 93.1211 30.9634C93.2607 30.5063 93.3306 29.6367 93.3306 28.3545V27.2881ZM122.276 37H116.925V26.6787C116.925 24.4951 116.811 23.0859 116.582 22.4512C116.354 21.8037 115.979 21.3022 115.458 20.9468C114.951 20.5913 114.335 20.4136 113.611 20.4136C112.685 20.4136 111.853 20.6675 111.117 21.1753C110.38 21.6831 109.873 22.356 109.593 23.1938C109.327 24.0317 109.193 25.5806 109.193 27.8403V37H103.842V16.7764H108.812V19.7471C110.577 17.4619 112.799 16.3193 115.478 16.3193C116.658 16.3193 117.737 16.5352 118.715 16.9668C119.692 17.3857 120.429 17.9253 120.924 18.5854C121.432 19.2456 121.781 19.9946 121.971 20.8325C122.174 21.6704 122.276 22.8701 122.276 24.4316V37ZM127.227 38.333L133.34 39.0757C133.441 39.7866 133.676 40.2754 134.044 40.542C134.552 40.9229 135.352 41.1133 136.444 41.1133C137.84 41.1133 138.888 40.9038 139.586 40.4849C140.056 40.2056 140.411 39.7549 140.652 39.1328C140.817 38.6885 140.9 37.8696 140.9 36.6763V33.7246C139.3 35.9082 137.282 37 134.844 37C132.127 37 129.976 35.8511 128.389 33.5532C127.145 31.7378 126.522 29.478 126.522 26.7739C126.522 23.3843 127.335 20.7944 128.96 19.0044C130.598 17.2144 132.629 16.3193 135.054 16.3193C137.555 16.3193 139.618 17.4175 141.243 19.6138V16.7764H146.251V34.9243C146.251 37.311 146.054 39.0947 145.661 40.2754C145.267 41.4561 144.715 42.3828 144.004 43.0557C143.293 43.7285 142.341 44.2554 141.147 44.6362C139.967 45.0171 138.469 45.2075 136.653 45.2075C133.226 45.2075 130.794 44.6172 129.36 43.4365C127.925 42.2686 127.208 40.7832 127.208 38.9805C127.208 38.8027 127.214 38.5869 127.227 38.333ZM132.007 26.4692C132.007 28.6147 132.419 30.189 133.245 31.1919C134.083 32.1821 135.111 32.6772 136.33 32.6772C137.637 32.6772 138.742 32.1694 139.643 31.1538C140.544 30.1255 140.995 28.6084 140.995 26.6025C140.995 24.5078 140.563 22.9526 139.7 21.937C138.837 20.9214 137.745 20.4136 136.425 20.4136C135.143 20.4136 134.083 20.915 133.245 21.918C132.419 22.9082 132.007 24.4253 132.007 26.4692ZM163.275 30.5635L168.607 31.4585C167.922 33.4136 166.836 34.9053 165.351 35.9336C163.878 36.9492 162.031 37.457 159.81 37.457C156.293 37.457 153.69 36.3081 152.002 34.0103C150.669 32.1694 150.002 29.8462 150.002 27.0405C150.002 23.689 150.878 21.0674 152.63 19.1758C154.382 17.2715 156.598 16.3193 159.276 16.3193C162.285 16.3193 164.659 17.3159 166.398 19.3091C168.138 21.2896 168.969 24.3301 168.893 28.4307H155.487C155.525 30.0176 155.957 31.2554 156.782 32.144C157.607 33.02 158.635 33.458 159.867 33.458C160.705 33.458 161.409 33.2295 161.98 32.7725C162.552 32.3154 162.983 31.5791 163.275 30.5635ZM163.58 25.1553C163.542 23.6064 163.142 22.4321 162.38 21.6323C161.619 20.8198 160.692 20.4136 159.6 20.4136C158.432 20.4136 157.467 20.8389 156.706 21.6895C155.944 22.54 155.569 23.6953 155.582 25.1553H163.58ZM170.931 16.7764H173.901V15.2529C173.901 13.5518 174.079 12.2822 174.435 11.4443C174.803 10.6064 175.469 9.92725 176.434 9.40674C177.412 8.87354 178.643 8.60693 180.128 8.60693C181.652 8.60693 183.144 8.83545 184.604 9.29248L183.88 13.0249C183.029 12.8218 182.21 12.7202 181.423 12.7202C180.649 12.7202 180.09 12.9043 179.748 13.2725C179.417 13.6279 179.252 14.3198 179.252 15.3481V16.7764H183.251V20.9849H179.252V37H173.901V20.9849H170.931V16.7764Z" fill="#F48E4C"/>
<path d="M192.045 37V9.08301H197.682V20.0708H208.727V9.08301H214.363V37H208.727V24.7935H197.682V37H192.045ZM218.934 26.6025C218.934 24.8252 219.372 23.105 220.248 21.4419C221.124 19.7788 222.361 18.5093 223.961 17.6333C225.573 16.7573 227.37 16.3193 229.35 16.3193C232.41 16.3193 234.917 17.3159 236.872 19.3091C238.827 21.2896 239.805 23.7969 239.805 26.8311C239.805 29.8906 238.814 32.4297 236.834 34.4482C234.866 36.4541 232.384 37.457 229.388 37.457C227.535 37.457 225.764 37.0381 224.075 36.2002C222.399 35.3623 221.124 34.1372 220.248 32.5249C219.372 30.8999 218.934 28.9258 218.934 26.6025ZM224.418 26.8882C224.418 28.894 224.894 30.4302 225.846 31.4966C226.798 32.563 227.973 33.0962 229.369 33.0962C230.766 33.0962 231.934 32.563 232.873 31.4966C233.825 30.4302 234.301 28.8813 234.301 26.8501C234.301 24.8696 233.825 23.3462 232.873 22.2798C231.934 21.2134 230.766 20.6802 229.369 20.6802C227.973 20.6802 226.798 21.2134 225.846 22.2798C224.894 23.3462 224.418 24.8823 224.418 26.8882ZM253.287 16.7764V21.042H249.631V29.1924C249.631 30.8428 249.663 31.8076 249.726 32.0869C249.802 32.3535 249.961 32.5757 250.202 32.7534C250.456 32.9312 250.761 33.02 251.116 33.02C251.611 33.02 252.329 32.8486 253.268 32.5059L253.725 36.6572C252.481 37.1904 251.072 37.457 249.498 37.457C248.533 37.457 247.663 37.2983 246.889 36.981C246.114 36.6509 245.543 36.2319 245.175 35.7241C244.819 35.2036 244.572 34.5054 244.432 33.6294C244.318 33.0073 244.261 31.7505 244.261 29.8589V21.042H241.804V16.7764H244.261V12.7583L249.631 9.63525V16.7764H253.287ZM268.712 30.5635L274.044 31.4585C273.358 33.4136 272.273 34.9053 270.788 35.9336C269.315 36.9492 267.468 37.457 265.246 37.457C261.729 37.457 259.127 36.3081 257.438 34.0103C256.105 32.1694 255.439 29.8462 255.439 27.0405C255.439 23.689 256.315 21.0674 258.067 19.1758C259.819 17.2715 262.034 16.3193 264.713 16.3193C267.722 16.3193 270.096 17.3159 271.835 19.3091C273.574 21.2896 274.406 24.3301 274.33 28.4307H260.923C260.961 30.0176 261.393 31.2554 262.218 32.144C263.043 33.02 264.072 33.458 265.303 33.458C266.141 33.458 266.846 33.2295 267.417 32.7725C267.988 32.3154 268.42 31.5791 268.712 30.5635ZM269.017 25.1553C268.979 23.6064 268.579 22.4321 267.817 21.6323C267.055 20.8198 266.128 20.4136 265.037 20.4136C263.869 20.4136 262.904 20.8389 262.142 21.6895C261.38 22.54 261.006 23.6953 261.019 25.1553H269.017ZM278.709 37V9.08301H284.061V37H278.709Z" fill="#2B2B2B"/>
</svg>
